# xmcd CD database file
#
# Track frame offsets:
#	150
#	15272
#	30527
#	46795
#	66015
#	82487
#	98672
#	108387
#	132367
#	146025
#
# Disc length: 2200 seconds
#
# Revision: 0
# Processed by: cddbd v1.5PL3 Copyright (c) Steve Scherf et al.
# Submitted via: CDex 1.50
#
DISCID=7f08960a
DTITLE=GODIEGO - DEAD END
DYEAR=1977
DGENRE=Rock
TTITLE0=MILLIONS OF YEARS
TTITLE1=IN THE CITY
TTITLE2=STOP and LOOK AROUND
TTITLE3=DEAD END -- LOVE FLOWERS PROPHECY
TTITLE4=THE LAST HOUR
TTITLE5=PANIC -- IMAGES
TTITLE6=UNDER UNDERGROUND
TTITLE7=A FACE IN THE CROWD
TTITLE8=(CRIME IS)THE SIGN OF THE TIMES
TTITLE9=MIKUNI
EXTD=YEAR: 1977
EXTT0=
EXTT1=
EXTT2=
EXTT3=
EXTT4=
EXTT5=
EXTT6=
EXTT7=
EXTT8=
EXTT9=
PLAYORDER=
